
<svg version="1.0" xmlns="http://www.w3.org/2000/svg"
 width="500.000000pt" height="500.000000pt" viewBox="0 0 500.000000 500.000000"
 preserveAspectRatio="xMidYMid meet">

<g transform="translate(0.000000,500.000000) scale(0.100000,-0.100000)"
fill="#000000" stroke="none">
<path d="M615 3120 c-171 -98 -321 -187 -335 -198 l-25 -20 -3 -384 c-2 -228
1 -395 7 -410 13 -35 658 -408 704 -407 43 0 677 366 694 400 16 30 18 345 3
354 -6 4 -37 -10 -70 -30 l-60 -36 0 -97 c0 -70 -4 -104 -15 -119 -22 -31
-522 -316 -555 -316 -31 0 -513 273 -548 310 -22 24 -22 27 -22 333 0 306 0
309 23 333 24 27 526 317 547 317 22 0 523 -289 548 -316 21 -24 22 -34 22
-165 0 -155 0 -155 67 -117 75 43 73 37 73 187 0 88 -5 144 -13 160 -8 16
-122 87 -337 212 -253 146 -333 188 -360 188 -27 0 -105 -40 -345 -179z"/>
<path d="M740 2907 c-219 -126 -230 -138 -163 -181 126 -81 358 -206 383 -206
18 0 84 32 174 84 80 46 147 81 151 78 3 -3 5 -87 5 -186 l0 -181 -151 -88
c-93 -53 -162 -87 -179 -87 -31 0 -283 139 -312 172 -15 17 -18 40 -18 137 l0
117 -56 32 c-31 18 -60 32 -65 32 -6 0 -8 -82 -7 -201 l3 -201 215 -124 c119
-68 226 -124 240 -124 14 0 121 56 240 124 l215 124 3 271 2 270 -63 35 c-35
20 -69 36 -75 36 -7 0 -75 -37 -153 -82 -84 -48 -152 -81 -169 -81 -35 0 -160
72 -160 93 0 18 122 90 153 90 11 0 36 -5 54 -12 30 -11 38 -9 88 17 30 17 55
37 55 45 0 19 -158 110 -191 110 -13 0 -112 -51 -219 -113z"/>
<path d="M1870 2795 l0 -195 166 0 166 0 30 30 29 30 -3 144 c-4 197 9 186
-215 186 l-173 0 0 -195z m310 5 l0 -120 -120 0 -120 0 0 120 0 120 120 0 120
0 0 -120z"/>
<path d="M2361 2964 c-19 -24 -21 -40 -21 -160 0 -143 8 -175 47 -193 14 -7
88 -11 183 -11 l160 0 0 40 0 40 -160 0 -160 0 0 40 0 40 160 0 160 0 0 40 0
40 -160 0 -160 0 0 40 0 40 160 0 160 0 0 35 0 35 -174 0 -175 0 -20 -26z"/>
<path d="M2820 2867 l0 -124 78 -65 c42 -35 85 -68 95 -71 28 -11 75 16 150
86 l67 63 0 117 0 117 -40 0 -40 0 0 -103 0 -103 -37 -35 c-87 -80 -75 -78
-143 -19 l-60 52 0 104 0 104 -35 0 -35 0 0 -123z"/>
<path d="M1890 2380 c-18 -18 -20 -33 -20 -173 0 -204 -14 -191 216 -195 l174
-3 0 40 0 41 -160 0 -160 0 0 120 0 120 160 0 160 0 0 35 0 35 -175 0 c-162 0
-177 -2 -195 -20z"/>
<path d="M2340 2233 c1 -116 4 -173 13 -184 25 -32 56 -39 182 -39 131 0 175
11 189 45 3 9 6 91 6 181 l0 164 -35 0 -35 0 0 -155 0 -155 -125 0 -125 0 0
155 0 155 -35 0 -35 0 0 -167z"/>
<path d="M2820 2205 l0 -195 35 0 35 0 0 80 0 80 27 0 c20 0 47 -20 109 -80
80 -79 82 -80 133 -80 l51 0 0 40 0 40 -43 0 c-37 0 -48 6 -82 40 l-39 40 53
0 c45 0 57 4 83 30 29 29 30 34 26 95 -6 104 -8 105 -215 105 l-173 0 0 -195z
m310 85 l0 -40 -120 0 -120 0 0 40 0 40 120 0 120 0 0 -40z"/>
<path d="M3310 2378 c-28 -30 -29 -145 -1 -179 18 -23 26 -24 160 -27 l141 -4
0 -39 0 -39 -160 0 -160 0 0 -40 0 -40 161 0 c210 0 228 9 229 117 0 51 -4 67
-24 90 -24 28 -25 28 -160 31 l-136 4 0 39 0 39 160 0 160 0 0 35 0 35 -175 0
c-166 0 -175 -1 -195 -22z"/>
<path d="M3784 2379 c-16 -18 -19 -40 -22 -164 -3 -139 -3 -143 21 -171 l25
-29 150 0 c202 0 192 -10 192 192 0 204 11 193 -193 193 -144 0 -155 -1 -173
-21z m296 -169 l0 -120 -120 0 -120 0 0 120 0 120 120 0 120 0 0 -120z"/>
<path d="M4260 2378 c-28 -30 -29 -145 -1 -179 18 -23 26 -24 160 -27 l141 -4
0 -39 0 -39 -160 0 -160 0 0 -40 0 -40 161 0 c210 0 228 9 229 117 0 51 -4 67
-24 90 -24 28 -25 28 -160 31 l-136 4 0 39 0 39 160 0 160 0 0 35 0 35 -175 0
c-166 0 -175 -1 -195 -22z"/>
</g>
</svg>
